<svg xmlns="http://www.w3.org/2000/svg" width="24" height="24" fill="none"><path fill="#121212" stroke="#121212" stroke-linejoin="round" stroke-miterlimit="10" stroke-width="1.5" d="M20.997 9.217c0 5.156-6.118 8.26-8.997 10.783-2.881-2.523-9-5.627-9-10.783 0-1.507.542-3.063 1.772-4.096 1.23-1.034 3.15-1.451 4.69-.83 1.11.448 1.92 1.367 2.365 2.375.065.146.123.294.173.445.05-.15.108-.299.173-.445.444-1.01 1.255-1.93 2.364-2.374 1.541-.622 3.461-.205 4.691.829C20.458 6.154 21 7.71 21 9.217h-.003z"/></svg>