<svg xmlns="http://www.w3.org/2000/svg" width="24" height="24" fill="none"><g clip-path="url(#prefix__a)"><path stroke="#121212" stroke-width="1.4" d="M4.85 12.53v8.047h14.305V12.66"/><path fill="#121212" d="M17.685 3.7l.577-.397A.7.7 0 0017.685 3v.7zm2.862 4.162v.7a.7.7 0 00.576-1.096l-.576.396zm-.002 0v-.7a.7.7 0 00-.574 1.102l.574-.402zm.566 1.79h.7-.7zm-3.122 3.121v.7-.7zm-2.992-2.23l.67-.2a.7.7 0 00-1.341 0l.67.2zm-2.992 2.23v.7-.7zm-2.99-2.23l.67-.2a.7.7 0 00-1.342 0l.671.2zm-2.993 2.23v.7-.7zM2.9 9.651h-.7.7zm.566-1.789l.574.402a.7.7 0 00-.574-1.102v.7zm-.002 0l-.576-.397a.7.7 0 00.576 1.097v-.7zM6.326 3.7V3a.7.7 0 00-.577.303l.577.397zm11.36 0l-.578.397 2.862 4.162.577-.397.576-.397-2.861-4.162-.577.397zm2.86 4.162v-.7h-.001v1.4h.002v-.7zm-.001 0l-.574.402c.277.395.44.872.44 1.387h1.4a3.81 3.81 0 00-.693-2.19l-.573.401zm.566 1.79h-.7a2.423 2.423 0 01-2.422 2.421v1.4a3.823 3.823 0 003.822-3.822h-.7zm-3.122 3.121v-.7a2.424 2.424 0 01-2.321-1.73l-.671.2-.671.2a3.824 3.824 0 003.663 2.73v-.7zm-2.992-2.23l-.671-.2a2.423 2.423 0 01-2.32 1.73v1.4a3.823 3.823 0 003.662-2.73l-.671-.2zm-2.992 2.23v-.7a2.423 2.423 0 01-2.32-1.73l-.67.2-.672.2a3.823 3.823 0 003.662 2.73v-.7zm-2.99-2.23l-.672-.2a2.424 2.424 0 01-2.32 1.73v1.4a3.823 3.823 0 003.662-2.73l-.67-.2zm-2.993 2.23v-.7A2.423 2.423 0 013.6 9.651H2.2a3.823 3.823 0 003.822 3.822v-.7zM2.9 9.651h.7c0-.515.163-.992.44-1.387l-.574-.402-.573-.402A3.806 3.806 0 002.2 9.651h.7zm.566-1.789v-.7h-.002v1.4h.002v-.7zm-.002 0l.577.397 2.862-4.162-.577-.397-.577-.397-2.861 4.162.576.397zM6.326 3.7v.7h11.36V3H6.325v.7z"/></g><defs><clipPath id="prefix__a"><path fill="#fff" d="M0 0h24v24H0z"/></clipPath></defs></svg>