<svg width="24" height="24" viewBox="0 0 24 24" fill="none" xmlns="http://www.w3.org/2000/svg">
<g clip-path="url(#clip0_2177_18325)">
<path d="M1.5 16.75C1.5 16.3358 1.83579 16 2.25 16C2.66421 16 3 16.3358 3 16.75V21H7.25C7.66421 21 8 21.3358 8 21.75C8 22.1642 7.66421 22.5 7.25 22.5H2.28809C2.12824 22.5 1.98106 22.4485 1.85938 22.3633C1.64475 22.2314 1.50011 21.9969 1.5 21.7266V16.75ZM21 16.75C21 16.3358 21.3358 16 21.75 16C22.1642 16 22.5 16.3358 22.5 16.75V21.7324C22.4998 22.1214 22.2035 22.4413 21.8242 22.4785C21.7695 22.4912 21.7129 22.5 21.6543 22.5H16.75C16.3358 22.5 16 22.1642 16 21.75C16 21.3358 16.3358 21 16.75 21H21V16.75ZM7.25 17V8C7.25 7.58579 7.58579 7.25 8 7.25C8.41421 7.25 8.75 7.58579 8.75 8V17C8.75 17.4142 8.41421 17.75 8 17.75C7.58579 17.75 7.25 17.4142 7.25 17ZM10.25 17V8C10.25 7.58579 10.5858 7.25 11 7.25C11.4142 7.25 11.75 7.58579 11.75 8V17C11.75 17.4142 11.4142 17.75 11 17.75C10.5858 17.75 10.25 17.4142 10.25 17ZM13.25 17V8C13.25 7.58579 13.5858 7.25 14 7.25C14.4142 7.25 14.75 7.58579 14.75 8V17C14.75 17.4142 14.4142 17.75 14 17.75C13.5858 17.75 13.25 17.4142 13.25 17ZM16.25 17V8C16.25 7.58579 16.5858 7.25 17 7.25C17.4142 7.25 17.75 7.58579 17.75 8V17C17.75 17.4142 17.4142 17.75 17 17.75C16.5858 17.75 16.25 17.4142 16.25 17ZM1.5 7.25V2.36035C1.5 2.3229 1.50349 2.28598 1.50879 2.25C1.50879 1.83581 1.84461 1.50004 2.25879 1.5H7.25C7.66421 1.5 8 1.83579 8 2.25C8 2.66421 7.66421 3 7.25 3H3V7.25C3 7.66421 2.66421 8 2.25 8C1.83579 8 1.5 7.66421 1.5 7.25ZM21 7.25V3H16.75C16.3358 3 16 2.66421 16 2.25C16 1.83579 16.3358 1.5 16.75 1.5H21.6592C21.7015 1.50001 21.7428 1.50497 21.7832 1.51172C22.1819 1.52911 22.4999 1.8568 22.5 2.25977V7.25C22.5 7.66421 22.1642 8 21.75 8C21.3358 8 21 7.66421 21 7.25Z" fill="black"/>
</g>
<defs>
<clipPath id="clip0_2177_18325">
<rect width="24" height="24" fill="white"/>
</clipPath>
</defs>
</svg>
