<svg width="24" height="24" fill="none" xmlns="http://www.w3.org/2000/svg"><path d="M9.345 3.25a.9.9 0 01.9-.9h3.497a.9.9 0 110 1.8h-3.497a.9.9 0 01-.9-.9zM7.647 3.236a.9.9 0 01-.872.927c-.857.026-1.214.093-1.468.224l-.01.005a2.129 2.129 0 00-.924.93c-.13.254-.197.612-.223 1.466a.9.9 0 11-1.8-.055c.026-.853.088-1.584.424-2.236l.002-.006c.378-.722.961-1.33 1.712-1.707.651-.333 1.381-.395 2.232-.42a.9.9 0 01.927.872zM16.34 3.236a.9.9 0 01.927-.873c.85.026 1.58.088 2.232.421a3.929 3.929 0 011.712 1.707l.003.006c.335.652.397 1.383.423 2.236a.9.9 0 11-1.8.055c-.025-.854-.093-1.212-.223-1.466a2.13 2.13 0 00-.925-.93l-.009-.005c-.254-.13-.61-.198-1.468-.224a.9.9 0 01-.872-.927zM3.25 9.345a.9.9 0 01.9.9v3.497a.9.9 0 11-1.8 0v-3.497a.9.9 0 01.9-.9zM20.737 9.345a.9.9 0 01.9.9v3.497a.9.9 0 11-1.8 0v-3.497a.9.9 0 01.9-.9zM20.777 16.34a.9.9 0 01.873.927c-.026.853-.088 1.584-.423 2.237l-.003.005a3.928 3.928 0 01-1.712 1.707c-.652.333-1.381.395-2.232.42a.9.9 0 11-.055-1.798c.857-.026 1.214-.094 1.468-.225l.01-.005c.385-.193.706-.515.924-.93.13-.254.198-.611.223-1.466a.9.9 0 01.927-.872zM3.223 16.353a.9.9 0 01.927.872c.026.857.093 1.214.224 1.468l.005.01c.193.385.515.706.93.924.254.13.612.198 1.466.224a.9.9 0 01-.055 1.799c-.853-.026-1.584-.088-2.236-.423l-.006-.003a3.929 3.929 0 01-1.707-1.712c-.333-.651-.395-1.381-.42-2.232a.9.9 0 01.872-.927zM9.345 20.737a.9.9 0 01.9-.9h3.497a.9.9 0 010 1.8h-3.497a.9.9 0 01-.9-.9z" fill="#37383C" fill-opacity=".61"/></svg>