<svg width="24" height="24" viewBox="0 0 24 24" fill="none" xmlns="http://www.w3.org/2000/svg">
<g clip-path="url(#clip0_663_24424)">
<path d="M5.35938 2.54774C5.78113 2.20419 6.42147 2.20845 6.82715 2.62294L6.82812 2.62196L10.8223 6.6161C11.2388 7.03268 11.2645 7.73387 10.8213 8.16688L10.8223 8.16786L9.52734 9.4618L14.5371 14.4716L15.832 13.1776L15.915 13.1034C16.3368 12.7599 16.9771 12.7632 17.3828 13.1776L21.3779 17.1718C21.794 17.5882 21.8195 18.2886 21.377 18.7216L21.3779 18.7225L19.9785 20.121C17.8767 22.2228 14.4589 22.2259 12.3535 20.1298L3.87891 11.6552C1.77425 9.55051 1.77425 6.12603 3.87891 4.02137L5.27734 2.62196L5.35938 2.54774ZM4.86816 5.01063C3.31033 6.56846 3.31051 9.10698 4.86816 10.6649L13.335 19.1317L13.4834 19.2733C15.0501 20.6881 17.4801 20.6409 18.9893 19.1317L20.1729 17.9462L16.6074 14.3817L15.3135 15.6766L15.3125 15.6757C14.8795 16.1186 14.1782 16.0932 13.7617 15.6766L8.32324 10.2382C7.88083 9.8051 7.90689 9.10277 8.32324 8.68641L9.61719 7.39149L6.05273 3.82606L4.86816 5.01063Z" fill="#121212"/>
</g>
<defs>
<clipPath id="clip0_663_24424">
<rect width="24" height="24" fill="white"/>
</clipPath>
</defs>
</svg>
