<svg width="24" height="24" viewBox="0 0 24 24" fill="none" xmlns="http://www.w3.org/2000/svg">
<g clip-path="url(#clip0_663_23996)">
<path d="M21.5535 4.79616V21.3284H2.44995V4.79616H21.5535ZM3.85034 19.929H20.1531V6.19655H3.85034V19.929Z" fill="#121212"/>
<path d="M15.659 13.2867C15.6588 11.1912 13.9596 9.49273 11.8641 9.49273C9.76874 9.49296 8.07037 11.1913 8.07014 13.2867C8.07014 15.3822 9.7686 17.0814 11.8641 17.0816C13.9598 17.0816 15.659 15.3824 15.659 13.2867ZM17.0594 13.2867C17.0594 16.1556 14.733 18.482 11.8641 18.482C8.9954 18.4818 6.66975 16.1554 6.66975 13.2867C6.66997 10.4181 8.99554 8.09257 11.8641 8.09234C14.7328 8.09234 17.0592 10.418 17.0594 13.2867Z" fill="#121212"/>
<path d="M16.8599 2.5V5.49609H15.4605V3.90039H8.20758V5.49609H6.80719V2.5H16.8599Z" fill="#121212"/>
</g>
<defs>
<clipPath id="clip0_663_23996">
<rect width="24" height="24" fill="white"/>
</clipPath>
</defs>
</svg>
