<svg xmlns="http://www.w3.org/2000/svg" width="24" height="24" viewBox="0 0 24 24" fill="none">
  <path d="M20 4.1001C20.4971 4.1001 20.9004 4.50343 20.9004 5.00049C20.9004 5.49754 20.4971 5.90088 20 5.90088H4C3.50294 5.90088 3.09961 5.49754 3.09961 5.00049C3.09961 4.50343 3.50294 4.1001 4 4.1001H20Z" fill="#121212"/>
  <path d="M20 11.1001C20.4971 11.1001 20.9004 11.5034 20.9004 12.0005C20.9004 12.4975 20.4971 12.9009 20 12.9009H4C3.50294 12.9009 3.09961 12.4975 3.09961 12.0005C3.09961 11.5034 3.50294 11.1001 4 11.1001H20Z" fill="#121212"/>
  <path d="M20 18.1001C20.4971 18.1001 20.9004 18.5034 20.9004 19.0005C20.9004 19.4975 20.4971 19.9009 20 19.9009H4C3.50294 19.9009 3.09961 19.4975 3.09961 19.0005C3.09961 18.5034 3.50294 18.1001 4 18.1001H20Z" fill="#121212"/>
</svg>