<svg xmlns="http://www.w3.org/2000/svg" width="24" height="24" viewBox="0 0 24 24" fill="none">
  <path d="M20 4.2998C20.3866 4.2998 20.7002 4.6134 20.7002 5C20.7002 5.3866 20.3866 5.7002 20 5.7002H4C3.6134 5.7002 3.2998 5.3866 3.2998 5C3.2998 4.6134 3.6134 4.2998 4 4.2998H20Z" fill="#121212"/>
  <path d="M20 11.2998C20.3866 11.2998 20.7002 11.6134 20.7002 12C20.7002 12.3866 20.3866 12.7002 20 12.7002H4C3.6134 12.7002 3.2998 12.3866 3.2998 12C3.2998 11.6134 3.6134 11.2998 4 11.2998H20Z" fill="#121212"/>
  <path d="M20 18.2998C20.3866 18.2998 20.7002 18.6134 20.7002 19C20.7002 19.3866 20.3866 19.7002 20 19.7002H4C3.6134 19.7002 3.2998 19.3866 3.2998 19C3.2998 18.6134 3.6134 18.2998 4 18.2998H20Z" fill="#121212"/>
</svg>