<svg width="24" height="24" viewBox="0 0 24 24" fill="none" xmlns="http://www.w3.org/2000/svg">
<g clip-path="url(#clip0_448_20825)">
<path d="M20.5996 12C20.5996 7.25035 16.7496 3.40039 12 3.40039C7.25035 3.40039 3.40039 7.25035 3.40039 12C3.40039 16.7496 7.25035 20.5996 12 20.5996V22C6.47715 22 2 17.5228 2 12C2 6.47715 6.47715 2 12 2C17.5228 2 22 6.47715 22 12C22 17.5228 17.5228 22 12 22V20.5996C16.7496 20.5996 20.5996 16.7496 20.5996 12Z" fill="#121212"/>
<path d="M16.4951 8.49512L12.9902 12L16.4951 15.5049L15.5049 16.4951L12 12.9902L8.49512 16.4951L7.50488 15.5049L11.0098 12L7.50488 8.49512L8.49512 7.50488L12 11.0098L15.5049 7.50488L16.4951 8.49512Z" fill="#121212"/>
</g>
<defs>
<clipPath id="clip0_448_20825">
<rect width="24" height="24" fill="white"/>
</clipPath>
</defs>
</svg>
