<svg xmlns="http://www.w3.org/2000/svg" width="24" height="24" viewBox="0 0 24 24" fill="none">
  <path d="M11.2998 6.5V11.2998H7V12.7002H12.7002V6.5H11.2998Z" fill="#121212"/>
  <path d="M20.5996 12C20.5996 7.26012 16.7399 3.40039 12 3.40039C7.26012 3.40039 3.40039 7.26012 3.40039 12C3.40039 16.7399 7.26012 20.5996 12 20.5996V22L11.4863 21.9873C6.38105 21.7276 2.27239 17.619 2.0127 12.5137L2 12C2 6.48692 6.48692 2 12 2L12.5137 2.0127C17.7891 2.28105 22 6.65918 22 12L21.9873 12.5137C21.719 17.7891 17.3408 22 12 22V20.5996C16.7399 20.5996 20.5996 16.7399 20.5996 12Z" fill="#121212"/>
</svg>