<svg width="24" height="24" viewBox="0 0 24 24" fill="none" xmlns="http://www.w3.org/2000/svg">
<g clip-path="url(#clip0_663_24599)">
<path d="M22.1526 3V17.8477H16.8606L17.7346 21L10.5559 17.8477H1.89966V3H22.1526ZM3.30005 16.4482H10.8499L15.5979 18.5322L15.0198 16.4482H20.7522V4.40039H3.30005V16.4482Z" fill="#121212"/>
<path d="M8.01978 11.5C8.57206 11.5 9.01978 11.0523 9.01978 10.5C9.01978 9.94772 8.57206 9.5 8.01978 9.5C7.46749 9.5 7.01978 9.94772 7.01978 10.5C7.01978 11.0523 7.46749 11.5 8.01978 11.5Z" fill="#121212"/>
<path d="M12.0198 11.5C12.5721 11.5 13.0198 11.0523 13.0198 10.5C13.0198 9.94772 12.5721 9.5 12.0198 9.5C11.4675 9.5 11.0198 9.94772 11.0198 10.5C11.0198 11.0523 11.4675 11.5 12.0198 11.5Z" fill="#121212"/>
<path d="M16.0198 11.5C16.5721 11.5 17.0198 11.0523 17.0198 10.5C17.0198 9.94772 16.5721 9.5 16.0198 9.5C15.4675 9.5 15.0198 9.94772 15.0198 10.5C15.0198 11.0523 15.4675 11.5 16.0198 11.5Z" fill="#121212"/>
</g>
<defs>
<clipPath id="clip0_663_24599">
<rect width="24" height="24" fill="white"/>
</clipPath>
</defs>
</svg>
