<svg width="24" height="24" viewBox="0 0 24 24" fill="none" xmlns="http://www.w3.org/2000/svg">
<g clip-path="url(#clip0_663_23985)">
<path d="M20.1324 3C20.519 3 20.8326 3.3136 20.8326 3.7002V19.9658C20.8326 20.3524 20.519 20.666 20.1324 20.666H3.86682C3.48022 20.666 3.16663 20.3524 3.16663 19.9658V3.7002C3.16663 3.3136 3.48022 3 3.86682 3H20.1324ZM4.56702 19.2666H19.4332V4.40039H4.56702V19.2666Z" fill="#121212"/>
<path d="M17.2324 7.3666C17.2324 6.98013 16.9196 6.66661 16.5332 6.6664C16.1466 6.6664 15.833 6.98 15.833 7.3666C15.8332 7.75302 16.1468 8.06581 16.5332 8.06581C16.9195 8.0656 17.2322 7.75289 17.2324 7.3666ZM18.6328 7.3666C18.6326 8.52608 17.6927 9.46599 16.5332 9.46621C15.3736 9.46621 14.4328 8.52621 14.4326 7.3666C14.4326 6.2068 15.3734 5.26601 16.5332 5.26601C17.6928 5.26622 18.6328 6.20693 18.6328 7.3666Z" fill="#121212"/>
<path d="M8.33596 11.3471C8.49841 11.2613 8.68946 11.2421 8.86721 11.2963L20.3369 14.7963C20.7066 14.9091 20.9154 15.3006 20.8028 15.6703C20.69 16.04 20.2984 16.2488 19.9287 16.1361L8.77932 12.7338L4.52736 15.6352C4.2081 15.8529 3.77263 15.7707 3.55471 15.4516C3.33688 15.1323 3.41912 14.6968 3.7383 14.4789L8.26857 11.3881L8.33596 11.3471Z" fill="#121212"/>
</g>
<defs>
<clipPath id="clip0_663_23985">
<rect width="24" height="24" fill="white"/>
</clipPath>
</defs>
</svg>
