<svg width="24" height="24" viewBox="0 0 24 24" fill="none" xmlns="http://www.w3.org/2000/svg">
<path fill-rule="evenodd" clip-rule="evenodd" d="M12 2C17.5228 2 22 6.47715 22 12C22 17.5228 17.5228 22 12 22C6.47715 22 2 17.5228 2 12C2 6.47715 6.47715 2 12 2ZM12.043 14.752C11.4132 14.752 10.9005 15.2647 10.9004 15.8799C10.9004 16.5098 11.4131 17.0225 12.043 17.0225C12.6434 17.0222 13.1709 16.5096 13.1709 15.8799C13.1708 15.2649 12.6433 14.7522 12.043 14.752ZM11.0322 7.2998L11.208 13.7852H12.8633L13.0244 7.2998H11.0322Z" fill="#121212"/>
</svg>
