<svg width="24" height="24" viewBox="0 0 24 24" fill="none" xmlns="http://www.w3.org/2000/svg">
<path d="M20.5996 12C20.5996 7.25035 16.7497 3.40039 12 3.40039C7.25035 3.40039 3.40039 7.25035 3.40039 12C3.40039 16.7497 7.25035 20.5996 12 20.5996V22C6.47715 22 2 17.5228 2 12C2 6.47715 6.47715 2 12 2C17.5228 2 22 6.47715 22 12C22 17.5229 17.5229 22 12 22V20.5996C16.7497 20.5996 20.5996 16.7497 20.5996 12Z" fill="#121212"/>
<path d="M13.024 7.30005L12.8629 13.7854H11.2076L11.0318 7.30005H13.024ZM12.0426 17.0227C11.4127 17.0227 10.9 16.51 10.9 15.8801C10.9 15.2649 11.4127 14.7522 12.0426 14.7522C12.6432 14.7522 13.1705 15.2649 13.1705 15.8801C13.1705 16.51 12.6432 17.0227 12.0426 17.0227Z" fill="#121212"/>
</svg>
