<svg xmlns="http://www.w3.org/2000/svg" width="24" height="24" viewBox="0 0 24 24" fill="none">
  <path d="M14.2764 3.64258C16.0855 2.91298 18.2753 3.40525 19.6787 4.58496C21.1018 5.78134 21.7001 7.55435 21.7002 9.21679C21.7002 9.22814 21.6968 9.23976 21.6963 9.25097C21.683 12.1113 19.9794 14.3405 18.0518 16.1113C17.0777 17.0061 16.0168 17.8108 15.0371 18.5381C14.0439 19.2754 13.1531 19.9197 12.4609 20.5264C12.197 20.7575 11.8031 20.7575 11.5391 20.5264C10.8461 19.9196 9.95466 19.2755 8.96094 18.5381C7.9809 17.8108 6.92047 17.0061 5.94629 16.1113C4.01072 14.3335 2.2998 12.0933 2.2998 9.21679C2.29992 7.55435 2.89816 5.78134 4.32129 4.58496C5.6371 3.47889 7.64437 2.97659 9.38086 3.51953L9.72461 3.64258C10.6995 4.03608 11.4641 4.7305 11.999 5.53125C12.5341 4.72861 13.3 4.0335 14.2764 3.6416V3.64258ZM3.7002 9.21679C3.7002 11.4962 5.04942 13.3863 6.89355 15.0801C7.80913 15.921 8.81744 16.6887 9.79492 17.4141C10.5704 17.9895 11.3396 18.5485 12 19.0859C12.6599 18.5486 13.4281 17.9894 14.2031 17.4141C15.1803 16.6886 16.189 15.9211 17.1045 15.0801C18.9483 13.3863 20.2979 11.4962 20.2979 9.21679C20.2979 9.21124 20.2987 9.20572 20.2988 9.20019C20.2947 7.8544 19.8091 6.52358 18.7773 5.65625C17.7214 4.76882 16.0714 4.42695 14.7988 4.94043L14.7979 4.9414C13.8895 5.30606 13.1995 6.07208 12.8145 6.94824L12.8125 6.95215C12.7567 7.0768 12.7069 7.20328 12.6641 7.33203C12.5689 7.61813 12.3015 7.81152 12 7.81152C11.6985 7.81152 11.4311 7.61813 11.3359 7.33203C11.2931 7.20329 11.2433 7.07681 11.1875 6.95215L11.1865 6.94824C10.8015 6.07441 10.1099 5.30765 9.2002 4.94043C7.9277 4.42727 6.27846 4.76895 5.22266 5.65625C4.18661 6.52715 3.70031 7.86535 3.7002 9.21679Z" fill="#121212"/>
</svg>