<svg xmlns="http://www.w3.org/2000/svg" width="24" height="24" viewBox="0 0 24 24" fill="none">
  <path d="M14.2568 3.5957C16.0852 2.85809 18.295 3.35664 19.7109 4.54688C21.1478 5.75486 21.7499 7.54332 21.75 9.2168C21.75 9.24265 21.7486 9.26876 21.7461 9.29395C21.716 12.1548 20.0072 14.3834 18.0859 16.1484C17.1098 17.0451 16.0471 17.8508 15.0674 18.5781C14.073 19.3163 13.1845 19.9595 12.4941 20.5645C12.2113 20.812 11.7887 20.812 11.5059 20.5645C10.8149 19.9594 9.92633 19.3162 8.93164 18.5781C7.9515 17.8508 6.8884 17.0452 5.91211 16.1484C3.9733 14.3676 2.25 12.1146 2.25 9.2168C2.25014 7.54332 2.85221 5.75486 4.28906 4.54688C5.70503 3.35664 7.91478 2.85809 9.74316 3.5957C10.7041 3.98361 11.4614 4.66163 11.999 5.44434C12.5366 4.66015 13.2949 3.98215 14.2568 3.5957Z" fill="#121212"/>
</svg>