<svg xmlns="http://www.w3.org/2000/svg" width="24" height="24" viewBox="0 0 24 24" fill="none">
  <path d="M15.871 8.49988C15.8709 6.36181 14.138 4.62878 11.9999 4.62878C9.86186 4.62886 8.12886 6.36186 8.12878 8.49988C8.12878 10.638 9.86181 12.3709 11.9999 12.371C14.138 12.371 15.871 10.638 15.871 8.49988ZM17.2714 8.49988C17.2714 11.4112 14.9112 13.7714 11.9999 13.7714C9.08861 13.7713 6.72839 11.4112 6.72839 8.49988C6.72847 5.58866 9.08866 3.22847 11.9999 3.22839C14.9112 3.22839 17.2713 5.58861 17.2714 8.49988Z" fill="#121212"/>
  <path d="M19.2998 21.071C19.2996 19.778 18.5672 18.5412 17.25 17.6003C15.934 16.6604 14.08 16.0574 12 16.0574C9.91996 16.0574 8.066 16.6604 6.75 17.6003C5.43279 18.5412 4.70035 19.778 4.7002 21.071C4.7002 21.4576 4.3866 21.7712 4 21.7712C3.6134 21.7712 3.2998 21.4576 3.2998 21.071C3.29996 19.2085 4.35858 17.5888 5.93652 16.4617C7.51595 15.3335 9.66179 14.657 12 14.657C14.3382 14.657 16.484 15.3335 18.0635 16.4617C19.6414 17.5888 20.7 19.2085 20.7002 21.071C20.7002 21.4576 20.3866 21.7712 20 21.7712C19.6134 21.7712 19.2998 21.4576 19.2998 21.071Z" fill="#121212"/>
</svg>