<svg xmlns="http://www.w3.org/2000/svg" width="24" height="24" viewBox="0 0 24 24" fill="none">
  <path d="M12 3.22998C14.9112 3.23005 17.2714 5.59024 17.2715 8.50146C17.2715 11.4128 14.9113 13.7729 12 13.7729C9.08873 13.7729 6.72852 11.4127 6.72852 8.50146C6.72859 5.59025 9.08878 3.23006 12 3.22998Z" fill="#121212"/>
  <path d="M12 14.6587C14.3382 14.6587 16.484 15.3352 18.0635 16.4634C19.6414 17.5905 20.7 19.2103 20.7002 21.0728C20.7001 21.4593 20.3866 21.7729 20 21.7729H4C3.61344 21.7729 3.29987 21.4593 3.2998 21.0728C3.29996 19.2103 4.35861 17.5905 5.93652 16.4634C7.51595 15.3352 9.66179 14.6587 12 14.6587Z" fill="#121212"/>
</svg>