<svg width="24" height="24" viewBox="0 0 24 24" fill="none" xmlns="http://www.w3.org/2000/svg">
<g clip-path="url(#clip0_663_24428)">
<path d="M20.5996 12C20.5996 7.25035 16.7497 3.40039 12 3.40039C7.25035 3.40039 3.40039 7.25035 3.40039 12C3.40039 16.7496 7.25035 20.5996 12 20.5996V22C6.47715 22 2 17.5228 2 12C2 6.47715 6.47715 2 12 2C17.5228 2 22 6.47715 22 12C22 17.5228 17.5228 22 12 22V20.5996C16.7497 20.5996 20.5996 16.7496 20.5996 12Z" fill="#121212"/>
<path d="M14.9998 10.5C14.9998 9.50589 14.1941 8.7002 13.2 8.7002H10.4002V12.2998H13.2C14.1941 12.2998 14.9998 11.4941 14.9998 10.5ZM16.4002 10.5C16.4002 12.2673 14.9673 13.7002 13.2 13.7002H8.9998V7.2998H13.2C14.9673 7.2998 16.4002 8.73269 16.4002 10.5Z" fill="#121212"/>
<path d="M10.4002 11.5V17.5H8.9998V11.5H10.4002Z" fill="#121212"/>
</g>
<defs>
<clipPath id="clip0_663_24428">
<rect width="24" height="24" fill="white"/>
</clipPath>
</defs>
</svg>
