<svg width="24" height="24" viewBox="0 0 24 24" fill="none" xmlns="http://www.w3.org/2000/svg">
<path d="M18.5995 9.16992C18.5995 5.76241 15.7012 2.90039 11.9999 2.90039C8.29856 2.90039 5.40027 5.76241 5.40027 9.16992C5.40039 12.6192 7.16495 15.637 9.06628 17.8721C10.0059 18.9767 10.9481 19.8543 11.6552 20.4541C11.7773 20.5577 11.8937 20.651 11.9999 20.7373C12.1061 20.651 12.2225 20.5577 12.3446 20.4541C13.0517 19.8543 13.9938 18.9767 14.9335 17.8721C16.8348 15.637 18.5994 12.6192 18.5995 9.16992ZM19.994 9.53613C19.7516 17.1917 11.9999 22.5 11.9999 22.5C11.9999 22.5 4.24815 17.1917 4.00574 9.53613L3.99988 9.16992C3.99988 4.93414 7.5816 1.5 11.9999 1.5C16.4182 1.5 19.9999 4.93414 19.9999 9.16992L19.994 9.53613Z" fill="#121212"/>
<path d="M13.5995 9.5C13.5995 8.61634 12.8835 7.90039 11.9999 7.90039C11.1162 7.90039 10.4003 8.61634 10.4003 9.5C10.4003 10.3837 11.1162 11.0996 11.9999 11.0996V12.5C10.343 12.5 8.99988 11.1569 8.99988 9.5C8.99988 7.84315 10.343 6.5 11.9999 6.5C13.6567 6.5 14.9999 7.84315 14.9999 9.5C14.9999 11.1569 13.6567 12.5 11.9999 12.5V11.0996C12.8835 11.0996 13.5995 10.3837 13.5995 9.5Z" fill="#121212"/>
</svg>
