<svg width="24" height="24" viewBox="0 0 24 24" fill="none" xmlns="http://www.w3.org/2000/svg">
<g clip-path="url(#clip0_663_23991)">
<path d="M8.12087 4.43487C8.50448 4.38822 8.85327 4.6617 8.90016 5.04522C8.94683 5.42899 8.67358 5.77883 8.28981 5.8255L5.19704 6.2005L4.43337 12.762L12.7019 21.2151L19.8679 13.8899L13.3826 7.26104C13.1124 6.98468 13.118 6.54112 13.3943 6.27081C13.6706 6.0008 14.1133 6.00553 14.3836 6.28155L21.3474 13.4007C21.6136 13.6728 21.6136 14.1071 21.3474 14.3792L13.2029 22.7054C13.0712 22.84 12.8902 22.9163 12.7019 22.9163C12.5138 22.9162 12.3335 22.8399 12.2019 22.7054L3.19997 13.5032C3.05231 13.3523 2.98031 13.1427 3.00466 12.9329L3.87087 5.49151L3.89431 5.3753C3.97192 5.1109 4.20033 4.91248 4.48122 4.87823L8.12087 4.43487Z" fill="#121212"/>
<path d="M11.3212 1C13.3914 1.00026 15.0553 2.71404 15.0555 4.80859C15.0555 6.90336 13.3915 8.61693 11.3212 8.61719C9.25068 8.61705 7.58679 6.90344 7.58679 4.80859C7.58706 2.71396 9.25085 1.00013 11.3212 1ZM11.3212 2.96973C11.1126 2.96992 10.9432 3.14001 10.9432 3.34863V4.43066H9.89246C9.68372 4.43066 9.51355 4.60083 9.51355 4.80957C9.51375 5.01814 9.68384 5.1875 9.89246 5.1875H10.9432V6.26953C10.9432 6.47815 11.1126 6.64824 11.3212 6.64844C11.5297 6.64823 11.6991 6.47814 11.6991 6.26953V5.1875H12.7499C12.9585 5.1875 13.1276 5.01814 13.1278 4.80957C13.1278 4.60083 12.9586 4.43066 12.7499 4.43066H11.6991V3.34863C11.6991 3.14002 11.5297 2.96993 11.3212 2.96973Z" fill="#121212"/>
</g>
<defs>
<clipPath id="clip0_663_23991">
<rect width="24" height="24" fill="white"/>
</clipPath>
</defs>
</svg>
