<svg width="24" height="24" fill="none" xmlns="http://www.w3.org/2000/svg"><path d="M8.105 5.53l-3.639.443-.866 7.44 9.002 9.203 8.145-8.326-6.963-7.119" stroke="#121212" stroke-linecap="round" stroke-linejoin="round"/><path d="M11.221 1.4c2.07 0 3.734 1.714 3.735 3.809 0 2.094-1.664 3.808-3.735 3.808-2.07 0-3.734-1.714-3.734-3.808 0-2.095 1.664-3.809 3.734-3.81zm0 1.97a.379.379 0 00-.378.379V4.83h-1.05a.38.38 0 000 .757h1.05v1.081c0 .21.17.38.378.38.209 0 .378-.171.378-.38V5.587h1.05a.378.378 0 000-.756H11.6V3.749a.379.379 0 00-.378-.38z" fill="#121212"/></svg>