<svg width="24" height="24" fill="none" xmlns="http://www.w3.org/2000/svg"><path d="M12.575 11.419c.708-.524 1.402-1.003 1.402-1.826 0-1.407-.96-2.05-2.124-2.05-.885 0-1.578.569-1.918 1.587l-1.268-.42c.472-1.481 1.755-2.543 3.186-2.543 1.696 0 3.48 1.241 3.48 3.426 0 1.557-1.268 2.41-1.961 2.934-.708.509-.93.912-.93 2.124h-1.356c0-1.646.53-2.514 1.49-3.232zm-.81 4.565c.586 0 .895.412.895.908 0 .528-.309.941-.895.941-.585 0-.912-.413-.912-.941 0-.496.326-.908.912-.908z" fill="#121212"/><path d="M12 2.5a9.5 9.5 0 110 19 9.5 9.5 0 010-19z" stroke="#121212" stroke-miterlimit="10"/></svg>