<svg width="24" height="24" viewBox="0 0 24 24" fill="none" xmlns="http://www.w3.org/2000/svg">
<g clip-path="url(#clip0_663_24681)">
<path fill-rule="evenodd" clip-rule="evenodd" d="M11.8152 15.3125C12.1257 15.3125 12.3822 15.4174 12.5603 15.6035C12.7367 15.7877 12.82 16.0347 12.8201 16.29C12.8201 16.5567 12.7379 16.8108 12.5613 17C12.3827 17.1914 12.1259 17.2978 11.8152 17.2979C11.5048 17.2979 11.2443 17.1917 11.0623 17.002C10.882 16.8138 10.7947 16.5593 10.7947 16.29C10.7948 16.0319 10.8841 15.7847 11.0643 15.6016C11.2457 15.4172 11.5048 15.3125 11.8152 15.3125Z" fill="#121212"/>
<path fill-rule="evenodd" clip-rule="evenodd" d="M11.8672 6.7998C13.4709 6.7998 15.2002 7.92386 15.2002 9.9375C15.2001 10.6676 14.8856 11.2298 14.5 11.6602C14.1188 12.0855 13.6558 12.3944 13.3516 12.6133L13.3477 12.6162C13.0403 12.8267 12.8649 12.9985 12.7578 13.2227C12.6483 13.4521 12.5986 13.7613 12.5986 14.2725V14.4727H10.9766V14.2725C10.9766 13.5444 11.1008 12.972 11.3467 12.4971C11.5928 12.0217 11.9528 11.6589 12.4014 11.3389C12.7269 11.1094 13.0242 10.9071 13.2432 10.6777C13.4563 10.4545 13.579 10.2223 13.5791 9.9375C13.5791 9.38663 13.3847 9.006 13.0889 8.75977C12.7876 8.50904 12.359 8.37988 11.8672 8.37988C11.1715 8.38002 10.613 8.7977 10.3301 9.60547L10.2666 9.78809L10.082 9.73047L8.94043 9.37109L8.74609 9.31055L8.81055 9.11719C9.2592 7.77561 10.4835 6.79997 11.8672 6.7998Z" fill="#121212"/>
<path d="M20.5996 12C20.5996 7.25035 16.7496 3.40039 12 3.40039C7.25035 3.40039 3.40039 7.25035 3.40039 12C3.40039 16.7496 7.25035 20.5996 12 20.5996V22C6.47715 22 2 17.5228 2 12C2 6.47715 6.47715 2 12 2C17.5228 2 22 6.47715 22 12C22 17.5228 17.5228 22 12 22V20.5996C16.7496 20.5996 20.5996 16.7496 20.5996 12Z" fill="#121212"/>
</g>
<defs>
<clipPath id="clip0_663_24681">
<rect width="24" height="24" fill="white"/>
</clipPath>
</defs>
</svg>
