<svg width="24" height="24" viewBox="0 0 24 24" fill="none" xmlns="http://www.w3.org/2000/svg">
<g clip-path="url(#clip0_1428_40155)">
<path fill-rule="evenodd" clip-rule="evenodd" d="M12.2856 2C17.8085 2 22.2856 6.47715 22.2856 12C22.2856 17.5228 17.8085 22 12.2856 22C6.7628 22 2.28564 17.5228 2.28564 12C2.28564 6.47715 6.7628 2 12.2856 2ZM12.1011 15.3125C11.7907 15.3125 11.5316 15.4173 11.3501 15.6016C11.17 15.7847 11.0807 16.0319 11.0806 16.29C11.0806 16.5593 11.1678 16.8138 11.3481 17.002C11.5302 17.1916 11.7907 17.2979 12.1011 17.2979C12.4116 17.2978 12.6686 17.1914 12.8472 17C13.0236 16.8108 13.106 16.5566 13.106 16.29C13.1059 16.0347 13.0224 15.7877 12.8462 15.6035C12.6681 15.4175 12.4115 15.3126 12.1011 15.3125ZM12.1528 6.7998C10.7691 6.79997 9.54485 7.77561 9.09619 9.11719L9.03174 9.31055L9.22607 9.37109L10.3677 9.73047L10.5522 9.78809L10.6157 9.60547C10.8986 8.7977 11.4571 8.38002 12.1528 8.37988C12.6447 8.37988 13.0732 8.50904 13.3745 8.75977C13.6703 9.006 13.8647 9.38663 13.8647 9.9375C13.8647 10.2223 13.7419 10.4545 13.5288 10.6777C13.3098 10.9071 13.0125 11.1094 12.687 11.3389C12.2385 11.6589 11.8784 12.0217 11.6323 12.4971C11.3865 12.972 11.2622 13.5444 11.2622 14.2725V14.4727H12.8843V14.2725C12.8843 13.7613 12.934 13.4521 13.0435 13.2227C13.1505 12.9985 13.326 12.8267 13.6333 12.6162L13.6372 12.6133C13.9415 12.3944 14.4045 12.0855 14.7856 11.6602C15.1712 11.2298 15.4858 10.6676 15.4858 9.9375C15.4858 7.92386 13.7565 6.7998 12.1528 6.7998Z" fill="#121212"/>
</g>
<defs>
<clipPath id="clip0_1428_40155">
<rect width="24" height="24" fill="white"/>
</clipPath>
</defs>
</svg>
