<svg xmlns="http://www.w3.org/2000/svg" width="24" height="24" viewBox="0 0 24 24" fill="none">
  <path d="M9.83659 3.88412C13.3508 2.9425 16.9411 4.41066 18.8581 7.27474V5.2474H20.2575V9.73666H14.821V8.33724H17.8747C16.3354 5.77232 13.2322 4.42392 10.1989 5.23666C6.53048 6.21976 4.35381 9.99005 5.33659 13.6585C6.31963 17.3272 10.0907 19.5047 13.7594 18.5218C15.9141 17.9443 17.5543 16.4053 18.3424 14.4876C18.6835 13.6575 18.8647 12.7576 18.8581 11.8353L19.5573 11.8304L20.2575 11.8245C20.2655 12.9369 20.0475 14.0214 19.6374 15.0199C18.6904 17.324 16.7161 19.1791 14.1217 19.8744C9.7064 21.0573 5.16741 18.4371 3.98405 14.0218C2.80091 9.60633 5.42116 5.06732 9.83659 3.88412Z" fill="#121212"/>
</svg>