<svg width="24" height="24" viewBox="0 0 24 24" fill="none" xmlns="http://www.w3.org/2000/svg">
<path d="M12.7397 8.62105C13.0416 8.618 13.3119 8.80908 13.4096 9.09469L15.02 13.8017L16.5014 9.11031C16.6179 8.74168 17.0117 8.53688 17.3803 8.65328C17.7489 8.76972 17.9528 9.16356 17.8364 9.53219L15.7143 16.2539C15.6232 16.5419 15.3573 16.7395 15.0551 16.7431C14.7529 16.7466 14.4821 16.5555 14.3842 16.2695L12.769 11.5488L11.2651 16.2558C11.1736 16.542 10.9093 16.7375 10.6089 16.7421C10.3084 16.7468 10.0382 16.5596 9.93795 16.2763L7.55807 9.55465C7.42925 9.1903 7.6205 8.79009 7.98483 8.66109C8.34918 8.53227 8.74939 8.72352 8.87838 9.08785L10.5639 13.8486L12.0805 9.10836L12.1225 9.00484C12.2391 8.77462 12.4756 8.62382 12.7397 8.62105Z" fill="#121212"/>
<path d="M18.0219 11.5106C18.4084 11.5107 18.7221 11.8243 18.7221 12.2108C18.7221 12.5974 18.4084 12.9109 18.0219 12.911H7.36565C6.97905 12.911 6.66545 12.5974 6.66545 12.2108C6.66545 11.8242 6.97905 11.5106 7.36565 11.5106H18.0219Z" fill="#121212"/>
<path d="M2.64304 11.966C2.64304 8.09254 4.84036 4.45273 8.3696 2.76484L8.82468 2.56074C11.1158 1.60246 13.644 1.54539 15.9995 2.41328C18.5018 3.33885 20.5085 5.20134 21.6333 7.65156C23.8923 12.5529 21.9582 18.3923 17.3081 20.9152L16.8501 21.1486C12.7175 23.1293 7.81304 21.994 4.92136 18.4211C4.67823 18.1207 4.72461 17.68 5.02487 17.4367C5.3253 17.1936 5.76599 17.2399 6.00925 17.5402C8.49878 20.6162 12.7058 21.5827 16.2456 19.8859C20.5189 17.8443 22.3797 12.616 20.3608 8.23652C19.4505 6.25337 17.8779 4.72374 15.9126 3.88496L15.5151 3.72676C13.492 2.98141 11.3293 3.03028 9.36374 3.85273L8.97311 4.02754C5.94887 5.47392 4.04343 8.61075 4.04343 11.966C4.04344 12.4314 4.07651 12.9013 4.14987 13.3586C4.21109 13.7402 3.95135 14.099 3.56979 14.1603C3.18807 14.2216 2.82829 13.962 2.76706 13.5803C2.68063 13.0414 2.64305 12.4968 2.64304 11.966Z" fill="#121212"/>
<path d="M4.76382 11.0975C4.92327 10.8721 5.23565 10.819 5.46109 10.9784C5.68656 11.1378 5.73966 11.4502 5.58023 11.6756L4.01773 13.8856L4.01675 13.8846C3.87195 14.094 3.64378 14.1786 3.44937 14.1786C3.25653 14.1785 3.03077 14.0953 2.88589 13.8895L2.88492 13.8905L1.29507 11.6981C1.1333 11.4747 1.18317 11.162 1.4064 10.9999C1.62996 10.8378 1.94352 10.8876 2.10562 11.1112L3.44644 12.9608L4.76382 11.0975Z" fill="#121212"/>
</svg>
