<svg width="16" height="16" viewBox="0 0 16 16" fill="none" xmlns="http://www.w3.org/2000/svg">
<path d="M10.9996 2.25C11.2758 2.25 11.4996 2.47386 11.4996 2.75V8.84961H13.9996C14.2158 8.84961 14.4079 8.98892 14.4752 9.19434C14.5424 9.3997 14.4697 9.62504 14.2955 9.75293L8.29553 14.1533C8.11956 14.2822 7.87966 14.2823 7.70374 14.1533L1.70374 9.75293C1.52978 9.62504 1.45692 9.39958 1.52405 9.19434C1.59128 8.98897 1.78357 8.84976 1.99963 8.84961H4.49963V2.75C4.49963 2.47397 4.72365 2.25019 4.99963 2.25H10.9996Z" fill="#FF5898"/>
<path d="M9.10256 3.3849H9.96154L6.9359 8.26741H6.10256L9.10256 3.3849ZM5 4.63164C5 4.38795 5.05556 4.16384 5.16667 3.95932C5.28205 3.75479 5.4359 3.59378 5.62821 3.47629C5.82479 3.3588 6.0406 3.30005 6.27564 3.30005C6.50641 3.30005 6.71795 3.3588 6.91026 3.47629C7.10256 3.59378 7.25427 3.75479 7.36538 3.95932C7.48077 4.16384 7.53846 4.38795 7.53846 4.63164C7.53846 4.87533 7.48077 5.09944 7.36538 5.30396C7.25427 5.50849 7.10256 5.6695 6.91026 5.78699C6.71795 5.90449 6.50641 5.96323 6.27564 5.96323C6.0406 5.96323 5.82479 5.90449 5.62821 5.78699C5.4359 5.6695 5.28205 5.50849 5.16667 5.30396C5.05556 5.09944 5 4.87533 5 4.63164ZM5.78205 4.63164C5.78205 4.7796 5.82906 4.90362 5.92308 5.0037C6.02137 5.10379 6.13889 5.15383 6.27564 5.15383C6.41239 5.15383 6.52564 5.10379 6.61538 5.0037C6.7094 4.90362 6.75641 4.7796 6.75641 4.63164C6.75641 4.48369 6.7094 4.35967 6.61538 4.25958C6.52564 4.15949 6.41239 4.10945 6.27564 4.10945C6.13889 4.10945 6.02137 4.15949 5.92308 4.25958C5.82906 4.35967 5.78205 4.48369 5.78205 4.63164ZM8.46154 6.96846C8.46154 6.72477 8.51709 6.50066 8.62821 6.29613C8.74359 6.09161 8.89744 5.9306 9.08974 5.8131C9.28632 5.69561 9.50214 5.63686 9.73718 5.63686C9.96795 5.63686 10.1795 5.69561 10.3718 5.8131C10.5641 5.9306 10.7158 6.09161 10.8269 6.29613C10.9423 6.50066 11 6.72477 11 6.96846C11 7.21215 10.9423 7.43625 10.8269 7.64078C10.7158 7.84531 10.5641 8.00632 10.3718 8.12381C10.1795 8.2413 9.96795 8.30005 9.73718 8.30005C9.50214 8.30005 9.28632 8.2413 9.08974 8.12381C8.89744 8.00632 8.74359 7.84531 8.62821 7.64078C8.51709 7.43625 8.46154 7.21215 8.46154 6.96846ZM9.25 6.96846C9.25 7.11641 9.29701 7.24043 9.39103 7.34052C9.48504 7.44061 9.60043 7.49065 9.73718 7.49065C9.87393 7.49065 9.98718 7.44061 10.0769 7.34052C10.1709 7.24043 10.2179 7.11641 10.2179 6.96846C10.2179 6.8205 10.1709 6.69648 10.0769 6.59639C9.98718 6.49631 9.87393 6.44626 9.73718 6.44626C9.60043 6.44626 9.48504 6.49631 9.39103 6.59639C9.29701 6.69648 9.25 6.8205 9.25 6.96846Z" fill="white"/>
</svg>
