<svg width="24" height="24" viewBox="0 0 24 24" fill="none" xmlns="http://www.w3.org/2000/svg">
<path d="M14.5178 12.0422C14.5175 10.6753 13.4092 9.56761 12.0422 9.56761C10.6754 9.56785 9.56786 10.6754 9.56762 12.0422C9.56762 13.4092 10.6753 14.5175 12.0422 14.5177V15.9181L11.843 15.9132C9.79545 15.8093 8.16725 14.1155 8.16725 12.0422C8.16749 9.90222 9.90223 8.16748 12.0422 8.16724C14.1824 8.16724 15.9179 9.90207 15.9181 12.0422L15.9132 12.2424C15.8093 14.2899 14.1155 15.9181 12.0422 15.9181V14.5177C13.4093 14.5177 14.5178 13.4093 14.5178 12.0422Z" fill="#121212"/>
<path d="M10 3.2998V4.7002H4.7002V10H3.2998V3.2998H10Z" fill="#121212"/>
<path d="M10 20.7002V19.2998H4.7002V14H3.2998V20.7002H10Z" fill="#121212"/>
<path d="M14 3.2998V4.7002H19.2998V10H20.7002V3.2998H14Z" fill="#121212"/>
<path d="M14 20.7002V19.2998H19.2998V14H20.7002V20.7002H14Z" fill="#121212"/>
</svg>
