<svg xmlns="http://www.w3.org/2000/svg" width="24" height="24" viewBox="0 0 24 24" fill="none">
  <path d="M10.5879 3.2998C14.613 3.2998 17.8768 6.56287 17.877 10.5879C17.877 12.3483 17.2522 13.9628 16.2129 15.2227L20.4951 19.5049L19.5049 20.4951L15.2227 16.2129C13.9628 17.2522 12.3483 17.877 10.5879 17.877C6.56287 17.8768 3.2998 14.613 3.2998 10.5879C3.29999 6.56298 6.56298 3.29999 10.5879 3.2998ZM10.5879 4.7002C7.33618 4.70038 4.70038 7.33618 4.7002 10.5879C4.7002 13.8398 7.33607 16.4764 10.5879 16.4766C13.8399 16.4766 16.4766 13.8399 16.4766 10.5879C16.4764 7.33607 13.8398 4.7002 10.5879 4.7002Z" fill="#121212"/>
</svg>