<svg width="24" height="24" fill="none" xmlns="http://www.w3.org/2000/svg"><path d="M21 13.121V10.38l-2.897-.573a7.04 7.04 0 00-.487-1.17l1.64-2.453-1.939-1.94-2.452 1.64a6.754 6.754 0 00-1.171-.486L13.121 2.5H10.38l-.573 2.897c-.41.128-.795.29-1.17.487l-2.453-1.64-1.94 1.939 1.64 2.452c-.196.368-.358.76-.486 1.171l-2.897.573v2.742l2.897.573c.128.41.29.795.487 1.17l-1.64 2.453 1.939 1.94 2.452-1.64c.368.196.76.358 1.171.486L10.379 21h2.742l.573-2.897c.41-.128.795-.29 1.17-.487l2.453 1.64 1.94-1.939-1.64-2.452a6.75 6.75 0 00.486-1.171L21 13.121zm-9.246 1.197a2.575 2.575 0 01-2.572-2.572 2.575 2.575 0 012.572-2.572 2.575 2.575 0 012.572 2.572 2.575 2.575 0 01-2.572 2.572z" stroke="#121212" stroke-miterlimit="10"/></svg>