<svg width="24" height="24" viewBox="0 0 24 24" fill="none" xmlns="http://www.w3.org/2000/svg">
<g clip-path="url(#clip0_663_24683)">
<path d="M18.1326 12.0002C18.1326 11.5028 18.0691 11.0204 17.949 10.5598L17.8123 10.0354L20.0291 8.7981L18.8855 6.88306L16.655 8.1272L16.282 7.77661C15.5634 7.10221 14.6731 6.59499 13.6794 6.32349L13.1638 6.18286V3.70044H10.8376V6.18286L10.322 6.32349C9.32825 6.59501 8.43799 7.10227 7.71948 7.77661L7.34644 8.1272L5.11499 6.88306L3.97046 8.7981L6.18921 10.0354L6.05249 10.5598C5.93249 11.0202 5.8689 11.5026 5.8689 12.0002C5.8689 12.4977 5.93251 12.9803 6.05249 13.4407L6.18921 13.9641L3.97046 15.2014L5.11499 17.1165L7.34644 15.8733L7.71948 16.2229C8.43802 16.8974 9.32808 17.4044 10.322 17.676L10.8376 17.8167V20.3H13.1638V17.8167L13.6794 17.676C14.6732 17.4045 15.5634 16.8974 16.282 16.2229L16.655 15.8733L18.8855 17.1165L20.03 15.2014L17.8123 13.9641L17.949 13.4407C18.069 12.9801 18.1326 12.4975 18.1326 12.0002ZM19.533 12.0002C19.533 12.4285 19.491 12.8477 19.4177 13.2561L21.3416 14.3303L21.9714 14.6809L19.3894 19.0012L16.8484 17.5842C16.1767 18.1325 15.4055 18.5683 14.5642 18.8635V21.7004H9.43726V18.8635C8.59555 18.5682 7.82412 18.132 7.1521 17.5833L4.61206 19.0012L2.03003 14.6809L2.65991 14.3303L4.58179 13.2571C4.50852 12.8484 4.46851 12.4286 4.46851 12.0002C4.46851 11.5716 4.50842 11.1515 4.58179 10.7424L2.65991 9.67017L2.03003 9.31958L4.61206 4.99927L7.15112 6.41626C7.82325 5.86742 8.59537 5.43138 9.43726 5.13599V2.30005H14.5642V5.13599C15.4054 5.43118 16.1767 5.86708 16.8484 6.41528L18.7966 5.33032L19.3894 4.99927L21.9714 9.31958L19.4177 10.7424C19.4912 11.1515 19.533 11.5714 19.533 12.0002Z" fill="#121212"/>
<path d="M13.6003 12.0002C13.6003 11.1166 12.8844 10.4006 12.0007 10.4006C11.1171 10.4006 10.4011 11.1166 10.4011 12.0002C10.4011 12.8839 11.1171 13.5999 12.0007 13.5999V15.0002C10.3439 15.0002 9.00073 13.6571 9.00073 12.0002C9.00073 10.3434 10.3439 9.00024 12.0007 9.00024C13.6576 9.00024 15.0007 10.3434 15.0007 12.0002C15.0007 13.6571 13.6576 15.0002 12.0007 15.0002V13.5999C12.8844 13.5999 13.6003 12.8839 13.6003 12.0002Z" fill="#121212"/>
</g>
<defs>
<clipPath id="clip0_663_24683">
<rect width="24" height="24" fill="white"/>
</clipPath>
</defs>
</svg>
