<svg width="24" height="24" fill="none" xmlns="http://www.w3.org/2000/svg"><path d="M16.604 16.542c-1.278 0-2.314 1.067-2.314 2.382 0 1.316 1.036 2.383 2.314 2.383s2.315-1.067 2.315-2.383c0-1.315-1.037-2.382-2.315-2.382zM6.171 9.564c-1.278 0-2.314 1.067-2.314 2.383 0 1.315 1.036 2.382 2.314 2.382 1.279 0 2.315-1.067 2.315-2.382 0-1.316-1.036-2.383-2.315-2.383zM16.604 2.587c-1.278 0-2.314 1.066-2.314 2.382s1.036 2.382 2.314 2.382S18.92 6.285 18.92 4.97s-1.037-2.382-2.315-2.382zM14.531 6.027l-6.58 4.4M7.76 13.671l6.771 4.196" stroke="#121212" stroke-miterlimit="10"/></svg>