<svg width="24" height="24" viewBox="0 0 24 24" fill="none" xmlns="http://www.w3.org/2000/svg">
<g clip-path="url(#clip0_663_24003)">
<path d="M19.5996 6C19.5996 4.56406 18.4359 3.40039 17 3.40039C15.5641 3.40039 14.4004 4.56406 14.4004 6C14.4004 7.43594 15.5641 8.59961 17 8.59961V10C14.7909 10 13 8.20914 13 6C13 3.79086 14.7909 2 17 2C19.2091 2 21 3.79086 21 6C21 8.20914 19.2091 10 17 10V8.59961C18.4359 8.59961 19.5996 7.43594 19.5996 6Z" fill="#121212"/>
<path d="M19.5996 18C19.5996 16.5641 18.4359 15.4004 17 15.4004C15.5641 15.4004 14.4004 16.5641 14.4004 18C14.4004 19.4359 15.5641 20.5996 17 20.5996V22C14.7909 22 13 20.2091 13 18C13 15.7909 14.7909 14 17 14C19.2091 14 21 15.7909 21 18C21 20.2091 19.2091 22 17 22V20.5996C18.4359 20.5996 19.5996 19.4359 19.5996 18Z" fill="#121212"/>
<path d="M8.59961 12C8.59961 10.5641 7.43594 9.40039 6 9.40039C4.56406 9.40039 3.40039 10.5641 3.40039 12C3.40039 13.4359 4.56406 14.5996 6 14.5996V16C3.79086 16 2 14.2091 2 12C2 9.79086 3.79086 8 6 8C8.20914 8 10 9.79086 10 12C10 14.2091 8.20914 16 6 16V14.5996C7.43594 14.5996 8.59961 13.4359 8.59961 12Z" fill="#121212"/>
<path d="M13.1597 6.88807L13.4998 7.50054L13.8403 8.11167L9.33965 10.6116L8.66035 9.38837L13.1597 6.88807Z" fill="#121212"/>
<path d="M13.8254 16.1264L13.4551 16.7211L13.086 17.3154L8.71579 14.5938L9.4556 13.4062L13.8254 16.1264Z" fill="#121212"/>
</g>
<defs>
<clipPath id="clip0_663_24003">
<rect width="24" height="24" fill="white"/>
</clipPath>
</defs>
</svg>
