<svg xmlns="http://www.w3.org/2000/svg" width="24" height="24" viewBox="0 0 24 24" fill="none">
  <path fill-rule="evenodd" clip-rule="evenodd" d="M17.7712 2.85583C17.9686 2.88024 18.1483 2.98758 18.2625 3.15369L21.1238 7.3158C21.1318 7.3274 21.1381 7.33997 21.1453 7.35193C21.5623 7.96322 21.8113 8.70279 21.8113 9.50134C21.8113 10.934 21.022 12.1818 19.8552 12.8363V21.1263H4.15015V12.8324C2.98679 12.177 2.19998 10.9314 2.19995 9.50134C2.19995 8.70282 2.44901 7.96316 2.86597 7.35193C2.87317 7.33997 2.87948 7.3274 2.88745 7.3158L5.74878 3.15369C5.87937 2.96373 6.09542 2.84998 6.32593 2.84998H17.6853L17.7712 2.85583ZM14.9968 11.8754C14.3598 12.6778 13.4087 13.2198 12.3269 13.3099L12.0056 13.3236C10.7921 13.3234 9.71285 12.7566 9.01343 11.8754C8.37612 12.6777 7.42522 13.2199 6.34351 13.3099L6.02222 13.3236C5.86246 13.3236 5.70516 13.3124 5.55054 13.2933V19.7269H18.4548V13.2943C18.3658 13.3051 18.2761 13.3141 18.1853 13.3187L17.989 13.3236C16.7756 13.3235 15.6966 12.7565 14.9968 11.8754ZM4.05249 8.09216C4.04789 8.09925 4.04467 8.10767 4.03979 8.11462C3.76321 8.5092 3.60034 8.98595 3.60034 9.50134L3.61304 9.74841C3.73694 10.9695 4.76836 11.9229 6.02222 11.9232L6.22534 11.9154C7.23113 11.8317 8.06405 11.1321 8.34351 10.1937L8.38452 10.0863C8.50017 9.84852 8.74344 9.69276 9.0144 9.69275C9.32393 9.69275 9.59681 9.89618 9.6853 10.1927C9.98327 11.1937 10.9104 11.9229 12.0056 11.9232L12.2087 11.9154C13.2142 11.8316 14.0465 11.1314 14.3259 10.1927L14.3669 10.0863C14.4826 9.84851 14.7259 9.69275 14.9968 9.69275C15.3065 9.69277 15.5794 9.8969 15.6677 10.1937C15.9657 11.1944 16.8935 11.9231 17.989 11.9232L18.2361 11.9105C19.4574 11.7865 20.4109 10.7552 20.4109 9.50134L20.4031 9.30994C20.3681 8.86794 20.2135 8.45987 19.9714 8.11462C19.966 8.10692 19.9618 8.09808 19.9568 8.09021L17.3171 4.25037H6.69409L4.05249 8.09216Z" fill="#121212"/>
</svg>