<svg xmlns="http://www.w3.org/2000/svg" width="24" height="24" viewBox="0 0 24 24" fill="none">
  <path fill-rule="evenodd" clip-rule="evenodd" d="M17.7351 2.8501C17.9821 2.8501 18.2134 2.97177 18.3533 3.17529L21.2146 7.3374C21.2228 7.34937 21.2296 7.36219 21.2371 7.37451C21.6591 7.99355 21.9109 8.7426 21.9109 9.55127C21.9109 10.9922 21.1228 12.2487 19.9548 12.9155V21.2271H4.15015V12.9116C2.98552 12.2439 2.19998 10.9897 2.19995 9.55127C2.19995 8.74262 2.45179 7.9935 2.87378 7.37451C2.88124 7.36219 2.88801 7.34937 2.89624 7.3374L5.75757 3.17529C5.89748 2.97177 6.12875 2.8501 6.37573 2.8501H17.7351ZM15.0457 12.0073C14.4009 12.7922 13.4544 13.3201 12.3816 13.4097L12.0554 13.4233C10.8493 13.4231 9.77359 12.8711 9.06421 12.0073C8.41918 12.7927 7.47141 13.3201 6.39819 13.4097L6.07202 13.4233C5.92941 13.4233 5.78877 13.414 5.65015 13.3989V19.7271H18.4548V13.3999C18.3831 13.4076 18.3109 13.4148 18.238 13.4185L18.0388 13.4233C16.8324 13.4232 15.7553 12.8716 15.0457 12.0073Z" fill="#121212"/>
</svg>