<svg width="24" height="24" viewBox="0 0 24 24" fill="none" xmlns="http://www.w3.org/2000/svg">
<g clip-path="url(#clip0_663_24567)">
<path d="M22.1328 3V17.8477H16.8408L17.7148 21L10.5361 17.8477H1.87988V3H22.1328ZM3.28027 16.4482H10.8301L15.5781 18.5322L15 16.4482H20.7324V4.40039H3.28027V16.4482Z" fill="#121212"/>
<path fill-rule="evenodd" clip-rule="evenodd" d="M11.949 12.9871C12.1895 12.9871 12.3882 13.067 12.5262 13.2088C12.6628 13.3492 12.7274 13.5374 12.7274 13.732C12.7274 13.9352 12.6637 14.1288 12.527 14.273C12.3886 14.4189 12.1896 14.5 11.949 14.5C11.7085 14.5 11.5067 14.4191 11.3657 14.2745C11.226 14.1311 11.1584 13.9372 11.1584 13.732C11.1584 13.5353 11.2276 13.3469 11.3672 13.2073C11.5077 13.0669 11.7085 12.9871 11.949 12.9871Z" fill="#121212"/>
<path fill-rule="evenodd" clip-rule="evenodd" d="M11.9892 6.5C13.2316 6.5 14.5713 7.35658 14.5713 8.89107C14.5712 9.44741 14.3275 9.87584 14.0288 10.2038C13.7336 10.528 13.3749 10.7633 13.1392 10.9301L13.1361 10.9324C12.898 11.0928 12.7621 11.2237 12.6792 11.3945C12.5944 11.5693 12.5559 11.805 12.5559 12.1945V12.3471H11.2992V12.1945C11.2992 11.6397 11.3955 11.2035 11.586 10.8416C11.7766 10.4793 12.0556 10.2029 12.403 9.95898C12.6552 9.78408 12.8855 9.62997 13.0552 9.45516C13.2203 9.28504 13.3154 9.10812 13.3154 8.89107C13.3154 8.47128 13.1648 8.18122 12.9356 7.99358C12.7022 7.80252 12.3702 7.70409 11.9892 7.70409C11.4502 7.7042 11.0176 8.02249 10.7984 8.63805L10.7492 8.77721L10.6062 8.7333L9.72184 8.45944L9.57129 8.4133L9.62122 8.26595C9.96879 7.24361 10.9172 6.50013 11.9892 6.5Z" fill="#121212"/>
</g>
<defs>
<clipPath id="clip0_663_24567">
<rect width="24" height="24" fill="white"/>
</clipPath>
</defs>
</svg>
