<svg xmlns="http://www.w3.org/2000/svg" width="24" height="24" viewBox="0 0 24 24" fill="none">
  <path d="M17.9443 3.00391C19.5294 3.08425 20.79 4.39492 20.79 6V17.79L20.7861 17.9443C20.7084 19.4783 19.4783 20.7084 17.9443 20.7861L17.79 20.79H6L5.8457 20.7861C4.31169 20.7084 3.08166 19.4783 3.00391 17.9443L3 17.79V6C3 4.34315 4.34315 3 6 3H17.79L17.9443 3.00391ZM19.3867 12.8799C17.7018 11.2361 15.0084 11.2527 13.3438 12.917L7.05859 19.3896H17.79C18.6736 19.3896 19.3896 18.6736 19.3896 17.79V12.8818L19.3867 12.8799ZM6 4.40039C5.11635 4.40039 4.40039 5.11635 4.40039 6V17.79C4.40042 18.4128 4.75699 18.9506 5.27637 19.2148L12.3535 11.9268C14.2612 10.0193 17.1882 9.74566 19.3896 11.1143V6C19.3896 5.11637 18.6737 4.40043 17.79 4.40039H6ZM9.18262 6.47168C10.428 6.59853 11.4004 7.65081 11.4004 8.92969L11.3877 9.18262C11.2609 10.4279 10.2084 11.4002 8.92969 11.4004L8.67676 11.3877C7.51439 11.2696 6.59007 10.3449 6.47168 9.18262L6.45898 8.92969C6.45898 7.56528 7.56528 6.45898 8.92969 6.45898L9.18262 6.47168ZM8.92969 7.85938C8.33845 7.85938 7.85938 8.33845 7.85938 8.92969C7.8596 9.52074 8.33858 10 8.92969 10C9.52062 9.99979 9.99978 9.52061 10 8.92969C10 8.33857 9.52075 7.85958 8.92969 7.85938Z" fill="black"/>
</svg>