<svg xmlns="http://www.w3.org/2000/svg" width="52" height="14" fill="none"><g clip-path="url(#prefix__clip0_136_4329)" fill="#000"><path d="M7.929.26L5.481 8.68 3.364.26H0L4.03 13.74h2.676l2.44-7.388 2.443 7.388h2.675L18.294.26h-3.363l-2.118 8.453L10.365.26H7.93zM22.982.26h-3.126v13.48h3.126V.26zM25.405.26v13.48h3.027V6.098l5.134 7.642h2.652V.26H33.19v8.123L28.046.26h-2.64zM45.154 10.89c-2.132 0-3.866-1.745-3.866-3.89s1.735-3.89 3.866-3.89c1.547 0 2.929.915 3.544 2.338h3.24C51.227 2.282 48.399 0 45.155 0c-3.836 0-6.956 3.14-6.956 7s3.12 7 6.956 7c3.246 0 6.076-2.284 6.786-5.453H48.7a3.85 3.85 0 01-3.546 2.343z"/></g><defs><clipPath id="prefix__clip0_136_4329"><path fill="#fff" d="M0 0h52v14H0z"/></clipPath></defs></svg>