<svg width="18" height="14" viewBox="0 0 18 14" fill="none" xmlns="http://www.w3.org/2000/svg">
<g clip-path="url(#clip0_1490_35351)">
<path d="M15.3846 5.3553H10.7022V7.34017H15.3846V9.89233H17.5202V0.67307H10.3716V2.68961H15.3846V5.3553Z" fill="#121212"/>
<path d="M9.3703 0.67307H7.23469V7.77577H9.3703V0.67307Z" fill="#121212"/>
<path d="M6.29806 6.02143H0V7.77576H1.56688V9.29725H3.52904V7.77576H6.29806V6.02143Z" fill="#121212"/>
<path d="M18 10.7667H10.2236V12.7952H18V10.7667Z" fill="#121212"/>
<path d="M3.52307 5.48969C5.08201 5.48969 6.35043 4.25822 6.35043 2.74485C6.35043 1.23147 5.08201 0 3.52307 0C1.96413 0 0.695312 1.23147 0.695312 2.74485C0.695312 4.25822 1.96373 5.48969 3.52307 5.48969ZM3.52307 1.86555C4.02353 1.86555 4.42914 2.25905 4.42914 2.74485C4.42914 3.23064 4.02353 3.62453 3.52307 3.62453C3.02261 3.62453 2.6166 3.23103 2.6166 2.74485C2.6166 2.25867 3.02221 1.86555 3.52307 1.86555Z" fill="#121212"/>
<path d="M6.54292 8.33267C4.93318 8.33267 3.62388 9.60431 3.62388 11.1663C3.62388 12.7284 4.93318 14 6.54292 14C8.15266 14 9.46196 12.7288 9.46196 11.1663C9.46196 9.60392 8.15266 8.33267 6.54292 8.33267ZM6.54292 12.0947C6.01428 12.0947 5.58684 11.6788 5.58684 11.1663C5.58684 10.6539 6.01467 10.2384 6.54292 10.2384C7.07116 10.2384 7.499 10.6539 7.499 11.1663C7.499 11.6788 7.07077 12.0947 6.54292 12.0947Z" fill="#121212"/>
</g>
<defs>
<clipPath id="clip0_1490_35351">
<rect width="18" height="14" fill="white"/>
</clipPath>
</defs>
</svg>
