<svg width="30" height="30" fill="none" xmlns="http://www.w3.org/2000/svg"><mask id="prefix__a" fill="#fff"><path d="M25 15.378v11.45H5V4h20v4"/></mask><path d="M25 26.829v1h1v-1h-1zm-20 0H4v1h1v-1zM5 4V3H4v1h1zm20 0h1V3h-1v1zm0 11.378h-1v11.45h2v-11.45h-1zm0 11.45v-1H5v2h20v-1zm-20 0h1V4H4v22.829h1zM5 4v1h20V3H5v1zm20 0h-1v4h2V4h-1z" fill="#5B7BF3" mask="url(#prefix__a)"/><path d="M6.691 21.234h6.992M6.691 23.943h6.992M21.135 16.583c-2.737 0-4.956-2.206-4.956-4.926s2.22-4.926 4.956-4.926c2.737 0 4.957 2.206 4.957 4.926s-2.22 4.926-4.957 4.926z" stroke="#5B7BF3" stroke-miterlimit="10"/><path d="M23.458 10.229l-2.863 2.845-1.783-1.577" stroke="#5B7BF3" stroke-miterlimit="10"/></svg>