<svg width="30" height="30" fill="none" xmlns="http://www.w3.org/2000/svg"><path d="M2.298 21.423h15.835V6.147H2.298v15.276z" stroke="#121212" stroke-miterlimit="10"/><path d="M18.133 21.423h9.526v-6.366l-4.623-4.45h-4.903" stroke="#121212" stroke-miterlimit="10"/><path d="M20.243 21.423c-.31.339-.507.788-.507 1.277 0 1.058.89 1.906 1.975 1.906 1.086 0 1.976-.859 1.976-1.906 0-.499-.197-.948-.517-1.297M5.442 21.423c-.31.339-.507.788-.507 1.277 0 1.058.89 1.906 1.976 1.906 1.086 0 1.975-.859 1.975-1.906 0-.499-.196-.948-.517-1.297M18.133 18.839H10.22" stroke="#121212" stroke-miterlimit="10"/></svg>