<svg width="30" height="30" fill="none" xmlns="http://www.w3.org/2000/svg"><g clip-path="url(#prefix__clip0_663_23182)"><mask id="prefix__a" fill="#fff"><path d="M18.5 24H3V5.04h21V17"/></mask><path d="M3 24H2v1h1v-1zM3 5.04v-1H2v1h1zm21 0h1v-1h-1v1zM18.5 24v-1H3v2h15.5v-1zM3 24h1V5.04H2V24h1zM3 5.04v1h21v-2H3v1zm21 0h-1V17h2V5.04h-1z" fill="#121212" mask="url(#prefix__a)"/><mask id="prefix__b" fill="#fff"><path d="M8.929 23.72V13.407h9.633v6.354"/></mask><path d="M8.929 13.406v-1h-1v1h1zm9.633 0h1v-1h-1v1zM8.93 23.721h1V13.406h-2v10.315h1zm0-10.315v1h9.633v-2H8.93v1zm9.633 0h-1v4.631h2v-4.63h-1zm0 4.631h-1v1.723h2v-1.723h-1z" fill="#121212" mask="url(#prefix__b)"/><path d="M13.745 13.406v10.315M22.088 17.083c2.362 0 4.253 1.862 4.253 4.13 0 2.27-1.891 4.132-4.253 4.133-2.361 0-4.254-1.863-4.254-4.132 0-2.27 1.893-4.131 4.254-4.131z" stroke="#121212" stroke-miterlimit="10"/><path d="M19.505 19.719l1.365 3.207 1.25-3.207 1.333 3.207 1.218-3.207" stroke="#121212" stroke-width=".8" stroke-linejoin="bevel"/><path d="M18.88 21.503h6.162" stroke="#121212" stroke-linejoin="bevel"/></g><defs><clipPath id="prefix__clip0_663_23182"><path fill="#fff" transform="translate(3 5)" d="M0 0h24v21H0z"/></clipPath></defs></svg>